<svg id="Layer_1" data-name="Layer 1" xmlns="http://www.w3.org/2000/svg" xmlns:xlink="http://www.w3.org/1999/xlink" viewBox="0 0 826.41 183.89"><defs><style>.cls-1,.cls-3,.cls-5{fill:none;}.cls-2{clip-path:url(#clip-path);}.cls-3,.cls-5{stroke:#0070c0;stroke-linecap:round;stroke-miterlimit:10;}.cls-3{stroke-width:18px;}.cls-4,.cls-8{fill:#0070c0;}.cls-5{stroke-width:17.05px;}.cls-6{fill:#fe5b00;}.cls-7{fill:#53ec1b;}.cls-8{font-size:35px;font-family:Menlo-Regular, Menlo;}</style><clipPath id="clip-path"><rect class="cls-1" width="826.41" height="183.89"/></clipPath></defs><g class="cls-2"><path class="cls-3" d="M55.38,124.42a31,31,0,1,0,0-59.89"/><line class="cls-3" x1="34.41" y1="156.47" x2="34.41" y2="63.47"/><path class="cls-3" d="M159.68,124.42a31,31,0,0,1-39-29.95v-31"/><line class="cls-3" x1="181.66" y1="63.47" x2="181.66" y2="156.47"/><line class="cls-3" x1="273.66" y1="32.47" x2="273.66" y2="125.47"/><polygon class="cls-4" points="329.13 73 282.63 73 299.68 55.95 346.18 55.95 346.18 117.95 329.13 135 329.13 73"/><path class="cls-3" d="M437.66,125.47a11.63,11.63,0,0,1-10.93-7.65l-16.9-46.7a11.63,11.63,0,0,0-21.85,0l-16.9,46.7a11.62,11.62,0,0,1-10.92,7.65"/><path class="cls-3" d="M577.16,63.71H538.41a15.51,15.51,0,0,0-12.7,6.61"/><path class="cls-3" d="M577.16,125.47H538.41a15.5,15.5,0,0,1,0-31h31"/><path class="cls-3" d="M525.58,69.72a12.31,12.31,0,0,0-10.42-6.25,11.64,11.64,0,0,0-10.93,7.65l-16.9,46.7a11.63,11.63,0,0,1-21.85,0l-16.9-46.7a11.63,11.63,0,0,0-10.92-7.65"/><polygon class="cls-4" points="609.81 73 656.31 73 639.26 55.95 592.76 55.95 592.76 117.95 609.81 135 609.81 73"/><path class="cls-3" d="M672.16,125.53h38.75a15.5,15.5,0,0,0,0-31H687.66a15.5,15.5,0,0,1,0-31h38.75"/><path class="cls-5" d="M796,94.53H765a15.5,15.5,0,0,1,0-31h38.75"/><path class="cls-5" d="M803.78,125.53H765a15.5,15.5,0,0,1-12.69-6.61"/><line class="cls-5" x1="208.79" y1="64.27" x2="247.54" y2="64.27"/><path class="cls-5" d="M208.79,31.48V95.27a31,31,0,0,0,39,30"/></g><circle class="cls-6" cx="476.37" cy="153.74" r="14.17"/><circle class="cls-7" cx="396.61" cy="35.27" r="14.17"/><text class="cls-8" transform="translate(496.06 166.92)">My Digital Twin</text></svg>